{
    "asset" : {
        "generator" : "Khronos glTF Blender I/O v0.9.36",
        "version" : "2.0"
    },
    "scene" : 0,
    "scenes" : [
        {
            "name" : "Scene",
            "nodes" : [
                0,
                1,
                2,
                3,
                4
            ]
        }
    ],
    "nodes" : [
        {
            "mesh" : 0,
            "name" : "Cube",
            "rotation" : [
                0,
                -0.7071067690849304,
                0,
                0.7071068286895752
            ]
        },
        {
            "mesh" : 1,
            "name" : "InnerFace",
            "rotation" : [
                0,
                -0.7071067690849304,
                0,
                0.7071068286895752
            ]
        },
        {
            "mesh" : 2,
            "name" : "InnerSides",
            "rotation" : [
                0,
                -0.7071067690849304,
                0,
                0.7071068286895752
            ]
        },
        {
            "mesh" : 3,
            "name" : "OutFaces",
            "rotation" : [
                0,
                -0.7071067690849304,
                0,
                0.7071068286895752
            ]
        },
        {
            "mesh" : 4,
            "name" : "Z5Door",
            "rotation" : [
                0,
                0,
                -0.7071067690849304,
                0.7071067690849304
            ],
            "translation" : [
                0,
                0,
                1
            ]
        }
    ],
    "materials" : [
        {
            "doubleSided" : true,
            "name" : "Material",
            "pbrMetallicRoughness" : {
                "baseColorFactor" : [
                    0.800000011920929,
                    0.800000011920929,
                    0.800000011920929,
                    1
                ],
                "metallicFactor" : 0,
                "roughnessFactor" : 0.4000000059604645
            }
        },
        {
            "doubleSided" : true,
            "name" : "Material.001",
            "pbrMetallicRoughness" : {
                "baseColorFactor" : [
                    0.800000011920929,
                    0.800000011920929,
                    0.800000011920929,
                    1
                ],
                "metallicFactor" : 0,
                "roughnessFactor" : 0.5
            }
        }
    ],
    "meshes" : [
        {
            "name" : "Cube",
            "primitives" : [
                {
                    "attributes" : {
                        "POSITION" : 0,
                        "NORMAL" : 1,
                        "TEXCOORD_0" : 2
                    },
                    "indices" : 3,
                    "material" : 0
                }
            ]
        },
        {
            "name" : "InnerFace",
            "primitives" : [
                {
                    "attributes" : {
                        "POSITION" : 4,
                        "NORMAL" : 5,
                        "TEXCOORD_0" : 6
                    },
                    "indices" : 7,
                    "material" : 0
                }
            ]
        },
        {
            "name" : "InnerSides",
            "primitives" : [
                {
                    "attributes" : {
                        "POSITION" : 8,
                        "NORMAL" : 9,
                        "TEXCOORD_0" : 10
                    },
                    "indices" : 11,
                    "material" : 0
                }
            ]
        },
        {
            "name" : "OutFaces",
            "primitives" : [
                {
                    "attributes" : {
                        "POSITION" : 12,
                        "NORMAL" : 13,
                        "TEXCOORD_0" : 14
                    },
                    "indices" : 15,
                    "material" : 0
                }
            ]
        },
        {
            "name" : "Z5Door",
            "primitives" : [
                {
                    "attributes" : {
                        "POSITION" : 16,
                        "NORMAL" : 17,
                        "TEXCOORD_0" : 18
                    },
                    "indices" : 19,
                    "material" : 1
                }
            ]
        }
    ],
    "accessors" : [
        {
            "bufferView" : 0,
            "componentType" : 5126,
            "count" : 20,
            "max" : [
                1,
                1,
                1
            ],
            "min" : [
                1,
                -1,
                -1
            ],
            "type" : "VEC3"
        },
        {
            "bufferView" : 1,
            "componentType" : 5126,
            "count" : 20,
            "type" : "VEC3"
        },
        {
            "bufferView" : 2,
            "componentType" : 5126,
            "count" : 20,
            "type" : "VEC2"
        },
        {
            "bufferView" : 3,
            "componentType" : 5123,
            "count" : 36,
            "type" : "SCALAR"
        },
        {
            "bufferView" : 4,
            "componentType" : 5126,
            "count" : 4,
            "max" : [
                -0.8999999761581421,
                0.8999999761581421,
                0.8999999761581421
            ],
            "min" : [
                -0.8999999761581421,
                -0.8999999761581421,
                -0.8999999761581421
            ],
            "type" : "VEC3"
        },
        {
            "bufferView" : 5,
            "componentType" : 5126,
            "count" : 4,
            "type" : "VEC3"
        },
        {
            "bufferView" : 6,
            "componentType" : 5126,
            "count" : 4,
            "type" : "VEC2"
        },
        {
            "bufferView" : 7,
            "componentType" : 5123,
            "count" : 6,
            "type" : "SCALAR"
        },
        {
            "bufferView" : 8,
            "componentType" : 5126,
            "count" : 16,
            "max" : [
                1,
                0.8999999761581421,
                0.8999999761581421
            ],
            "min" : [
                -0.8999999761581421,
                -0.8999999761581421,
                -0.8999999761581421
            ],
            "type" : "VEC3"
        },
        {
            "bufferView" : 9,
            "componentType" : 5126,
            "count" : 16,
            "type" : "VEC3"
        },
        {
            "bufferView" : 10,
            "componentType" : 5126,
            "count" : 16,
            "type" : "VEC2"
        },
        {
            "bufferView" : 11,
            "componentType" : 5123,
            "count" : 24,
            "type" : "SCALAR"
        },
        {
            "bufferView" : 12,
            "componentType" : 5126,
            "count" : 20,
            "max" : [
                1,
                1,
                1
            ],
            "min" : [
                -1,
                -1,
                -1
            ],
            "type" : "VEC3"
        },
        {
            "bufferView" : 13,
            "componentType" : 5126,
            "count" : 20,
            "type" : "VEC3"
        },
        {
            "bufferView" : 14,
            "componentType" : 5126,
            "count" : 20,
            "type" : "VEC2"
        },
        {
            "bufferView" : 15,
            "componentType" : 5123,
            "count" : 30,
            "type" : "SCALAR"
        },
        {
            "bufferView" : 16,
            "componentType" : 5126,
            "count" : 24,
            "max" : [
                1,
                1,
                0.05000000074505806
            ],
            "min" : [
                -1,
                -1,
                0
            ],
            "type" : "VEC3"
        },
        {
            "bufferView" : 17,
            "componentType" : 5126,
            "count" : 24,
            "type" : "VEC3"
        },
        {
            "bufferView" : 18,
            "componentType" : 5126,
            "count" : 24,
            "type" : "VEC2"
        },
        {
            "bufferView" : 19,
            "componentType" : 5123,
            "count" : 36,
            "type" : "SCALAR"
        }
    ],
    "bufferViews" : [
        {
            "buffer" : 0,
            "byteLength" : 240,
            "byteOffset" : 0
        },
        {
            "buffer" : 0,
            "byteLength" : 240,
            "byteOffset" : 240
        },
        {
            "buffer" : 0,
            "byteLength" : 160,
            "byteOffset" : 480
        },
        {
            "buffer" : 0,
            "byteLength" : 72,
            "byteOffset" : 640
        },
        {
            "buffer" : 0,
            "byteLength" : 48,
            "byteOffset" : 712
        },
        {
            "buffer" : 0,
            "byteLength" : 48,
            "byteOffset" : 760
        },
        {
            "buffer" : 0,
            "byteLength" : 32,
            "byteOffset" : 808
        },
        {
            "buffer" : 0,
            "byteLength" : 12,
            "byteOffset" : 840
        },
        {
            "buffer" : 0,
            "byteLength" : 192,
            "byteOffset" : 852
        },
        {
            "buffer" : 0,
            "byteLength" : 192,
            "byteOffset" : 1044
        },
        {
            "buffer" : 0,
            "byteLength" : 128,
            "byteOffset" : 1236
        },
        {
            "buffer" : 0,
            "byteLength" : 48,
            "byteOffset" : 1364
        },
        {
            "buffer" : 0,
            "byteLength" : 240,
            "byteOffset" : 1412
        },
        {
            "buffer" : 0,
            "byteLength" : 240,
            "byteOffset" : 1652
        },
        {
            "buffer" : 0,
            "byteLength" : 160,
            "byteOffset" : 1892
        },
        {
            "buffer" : 0,
            "byteLength" : 60,
            "byteOffset" : 2052
        },
        {
            "buffer" : 0,
            "byteLength" : 288,
            "byteOffset" : 2112
        },
        {
            "buffer" : 0,
            "byteLength" : 288,
            "byteOffset" : 2400
        },
        {
            "buffer" : 0,
            "byteLength" : 192,
            "byteOffset" : 2688
        },
        {
            "buffer" : 0,
            "byteLength" : 72,
            "byteOffset" : 2880
        }
    ],
    "buffers" : [
        {
            "byteLength" : 2952,
            "uri" : "data:application/octet-stream;base64,"
        }
    ]
}
